<mxfile host="app.diagrams.net" agent="Mozilla/5.0 (Windows NT 10.0; Win64; x64) AppleWebKit/537.36 (KHTML, like Gecko) Chrome/128.0.0.0 Safari/537.36" version="24.7.7">
  <diagram id="prtHgNgQTEPvFCAcTncT" name="Page-1">
    <mxGraphModel dx="1500" dy="746" grid="1" gridSize="10" guides="1" tooltips="1" connect="1" arrows="1" fold="1" page="1" pageScale="1" pageWidth="827" pageHeight="1169" math="0" shadow="0">
      <root>
        <mxCell id="0" />
        <mxCell id="1" parent="0" />
        <mxCell id="SQK4IzMh1T8t9lWKPkdR-6" style="edgeStyle=orthogonalEdgeStyle;rounded=0;orthogonalLoop=1;jettySize=auto;html=1;exitX=1;exitY=0.5;exitDx=0;exitDy=0;" edge="1" parent="1" source="SQK4IzMh1T8t9lWKPkdR-1" target="SQK4IzMh1T8t9lWKPkdR-5">
          <mxGeometry relative="1" as="geometry" />
        </mxCell>
        <mxCell id="SQK4IzMh1T8t9lWKPkdR-9" style="edgeStyle=orthogonalEdgeStyle;rounded=0;orthogonalLoop=1;jettySize=auto;html=1;exitX=0.5;exitY=1;exitDx=0;exitDy=0;" edge="1" parent="1" source="SQK4IzMh1T8t9lWKPkdR-1" target="SQK4IzMh1T8t9lWKPkdR-8">
          <mxGeometry relative="1" as="geometry" />
        </mxCell>
        <mxCell id="SQK4IzMh1T8t9lWKPkdR-1" value="user&amp;nbsp;" style="whiteSpace=wrap;html=1;aspect=fixed;" vertex="1" parent="1">
          <mxGeometry x="50" y="260" width="100" height="100" as="geometry" />
        </mxCell>
        <mxCell id="SQK4IzMh1T8t9lWKPkdR-2" value="keynaara DB" style="shape=cylinder3;whiteSpace=wrap;html=1;boundedLbl=1;backgroundOutline=1;size=15;" vertex="1" parent="1">
          <mxGeometry x="560" y="120" width="60" height="80" as="geometry" />
        </mxCell>
        <mxCell id="SQK4IzMh1T8t9lWKPkdR-16" value="" style="edgeStyle=orthogonalEdgeStyle;rounded=0;orthogonalLoop=1;jettySize=auto;html=1;" edge="1" parent="1" source="SQK4IzMh1T8t9lWKPkdR-3" target="SQK4IzMh1T8t9lWKPkdR-15">
          <mxGeometry relative="1" as="geometry" />
        </mxCell>
        <mxCell id="SQK4IzMh1T8t9lWKPkdR-20" value="" style="edgeStyle=orthogonalEdgeStyle;rounded=0;orthogonalLoop=1;jettySize=auto;html=1;" edge="1" parent="1" source="SQK4IzMh1T8t9lWKPkdR-3" target="SQK4IzMh1T8t9lWKPkdR-19">
          <mxGeometry relative="1" as="geometry" />
        </mxCell>
        <mxCell id="SQK4IzMh1T8t9lWKPkdR-3" value="hyperverge liveness" style="ellipse;whiteSpace=wrap;html=1;" vertex="1" parent="1">
          <mxGeometry x="690" y="370" width="120" height="80" as="geometry" />
        </mxCell>
        <mxCell id="SQK4IzMh1T8t9lWKPkdR-33" style="edgeStyle=orthogonalEdgeStyle;rounded=0;orthogonalLoop=1;jettySize=auto;html=1;" edge="1" parent="1" source="SQK4IzMh1T8t9lWKPkdR-5" target="SQK4IzMh1T8t9lWKPkdR-30">
          <mxGeometry relative="1" as="geometry" />
        </mxCell>
        <mxCell id="SQK4IzMh1T8t9lWKPkdR-5" value="users apply basic user details" style="ellipse;whiteSpace=wrap;html=1;" vertex="1" parent="1">
          <mxGeometry x="210" y="130" width="120" height="80" as="geometry" />
        </mxCell>
        <mxCell id="SQK4IzMh1T8t9lWKPkdR-7" style="edgeStyle=orthogonalEdgeStyle;rounded=0;orthogonalLoop=1;jettySize=auto;html=1;exitX=1;exitY=0.5;exitDx=0;exitDy=0;entryX=0;entryY=0.5;entryDx=0;entryDy=0;entryPerimeter=0;" edge="1" parent="1" source="SQK4IzMh1T8t9lWKPkdR-5" target="SQK4IzMh1T8t9lWKPkdR-2">
          <mxGeometry relative="1" as="geometry" />
        </mxCell>
        <mxCell id="SQK4IzMh1T8t9lWKPkdR-10" style="edgeStyle=orthogonalEdgeStyle;rounded=0;orthogonalLoop=1;jettySize=auto;html=1;" edge="1" parent="1" source="SQK4IzMh1T8t9lWKPkdR-8" target="SQK4IzMh1T8t9lWKPkdR-11">
          <mxGeometry relative="1" as="geometry">
            <mxPoint x="570" y="400" as="targetPoint" />
          </mxGeometry>
        </mxCell>
        <mxCell id="SQK4IzMh1T8t9lWKPkdR-31" style="edgeStyle=orthogonalEdgeStyle;rounded=0;orthogonalLoop=1;jettySize=auto;html=1;exitX=1;exitY=0;exitDx=0;exitDy=0;entryX=0;entryY=0.5;entryDx=0;entryDy=0;" edge="1" parent="1" source="SQK4IzMh1T8t9lWKPkdR-8" target="SQK4IzMh1T8t9lWKPkdR-30">
          <mxGeometry relative="1" as="geometry" />
        </mxCell>
        <mxCell id="SQK4IzMh1T8t9lWKPkdR-8" value="user takes a selfie" style="ellipse;whiteSpace=wrap;html=1;" vertex="1" parent="1">
          <mxGeometry x="20" y="520" width="120" height="80" as="geometry" />
        </mxCell>
        <mxCell id="SQK4IzMh1T8t9lWKPkdR-12" style="edgeStyle=orthogonalEdgeStyle;rounded=0;orthogonalLoop=1;jettySize=auto;html=1;" edge="1" parent="1" source="SQK4IzMh1T8t9lWKPkdR-11">
          <mxGeometry relative="1" as="geometry">
            <mxPoint x="690" y="400" as="targetPoint" />
          </mxGeometry>
        </mxCell>
        <mxCell id="SQK4IzMh1T8t9lWKPkdR-11" value="check file formats / file size in API level" style="whiteSpace=wrap;html=1;aspect=fixed;" vertex="1" parent="1">
          <mxGeometry x="530" y="360" width="80" height="80" as="geometry" />
        </mxCell>
        <mxCell id="SQK4IzMh1T8t9lWKPkdR-14" value="assuming liveliness accepts only JPEG as given in API specs&amp;nbsp;" style="shape=hexagon;perimeter=hexagonPerimeter2;whiteSpace=wrap;html=1;fixedSize=1;" vertex="1" parent="1">
          <mxGeometry x="510" y="450" width="120" height="80" as="geometry" />
        </mxCell>
        <mxCell id="SQK4IzMh1T8t9lWKPkdR-15" value="status code : failure" style="ellipse;whiteSpace=wrap;html=1;" vertex="1" parent="1">
          <mxGeometry x="710" y="560" width="80" height="80" as="geometry" />
        </mxCell>
        <mxCell id="SQK4IzMh1T8t9lWKPkdR-19" value="status code: success" style="ellipse;whiteSpace=wrap;html=1;" vertex="1" parent="1">
          <mxGeometry x="827" y="560" width="80" height="80" as="geometry" />
        </mxCell>
        <mxCell id="SQK4IzMh1T8t9lWKPkdR-23" style="edgeStyle=orthogonalEdgeStyle;rounded=0;orthogonalLoop=1;jettySize=auto;html=1;entryX=0;entryY=0.5;entryDx=0;entryDy=0;" edge="1" parent="1" source="SQK4IzMh1T8t9lWKPkdR-21" target="SQK4IzMh1T8t9lWKPkdR-19">
          <mxGeometry relative="1" as="geometry">
            <Array as="points">
              <mxPoint x="800" y="600" />
            </Array>
          </mxGeometry>
        </mxCell>
        <mxCell id="SQK4IzMh1T8t9lWKPkdR-24" style="edgeStyle=orthogonalEdgeStyle;rounded=0;orthogonalLoop=1;jettySize=auto;html=1;" edge="1" parent="1" source="SQK4IzMh1T8t9lWKPkdR-21" target="SQK4IzMh1T8t9lWKPkdR-15">
          <mxGeometry relative="1" as="geometry" />
        </mxCell>
        <mxCell id="SQK4IzMh1T8t9lWKPkdR-27" style="edgeStyle=orthogonalEdgeStyle;rounded=0;orthogonalLoop=1;jettySize=auto;html=1;" edge="1" parent="1" source="SQK4IzMh1T8t9lWKPkdR-21" target="SQK4IzMh1T8t9lWKPkdR-26">
          <mxGeometry relative="1" as="geometry" />
        </mxCell>
        <mxCell id="SQK4IzMh1T8t9lWKPkdR-21" value="redirect error message" style="shape=hexagon;perimeter=hexagonPerimeter2;whiteSpace=wrap;html=1;fixedSize=1;" vertex="1" parent="1">
          <mxGeometry x="827" y="710" width="70" height="54" as="geometry" />
        </mxCell>
        <mxCell id="SQK4IzMh1T8t9lWKPkdR-28" style="edgeStyle=orthogonalEdgeStyle;rounded=0;orthogonalLoop=1;jettySize=auto;html=1;entryX=0.5;entryY=1;entryDx=0;entryDy=0;" edge="1" parent="1" source="SQK4IzMh1T8t9lWKPkdR-26" target="SQK4IzMh1T8t9lWKPkdR-8">
          <mxGeometry relative="1" as="geometry" />
        </mxCell>
        <mxCell id="SQK4IzMh1T8t9lWKPkdR-26" value="show error message" style="ellipse;whiteSpace=wrap;html=1;" vertex="1" parent="1">
          <mxGeometry x="30" y="740" width="120" height="80" as="geometry" />
        </mxCell>
        <mxCell id="SQK4IzMh1T8t9lWKPkdR-46" style="edgeStyle=orthogonalEdgeStyle;rounded=0;orthogonalLoop=1;jettySize=auto;html=1;exitX=0.5;exitY=0;exitDx=0;exitDy=0;exitPerimeter=0;entryX=1;entryY=0.5;entryDx=0;entryDy=0;" edge="1" parent="1" source="SQK4IzMh1T8t9lWKPkdR-29" target="SQK4IzMh1T8t9lWKPkdR-43">
          <mxGeometry relative="1" as="geometry" />
        </mxCell>
        <mxCell id="SQK4IzMh1T8t9lWKPkdR-29" value="RBI DB" style="shape=cylinder3;whiteSpace=wrap;html=1;boundedLbl=1;backgroundOutline=1;size=15;" vertex="1" parent="1">
          <mxGeometry x="1090" y="140" width="100" height="110" as="geometry" />
        </mxCell>
        <mxCell id="SQK4IzMh1T8t9lWKPkdR-30" value="fetch present state user data with selfie&amp;nbsp;" style="ellipse;whiteSpace=wrap;html=1;" vertex="1" parent="1">
          <mxGeometry x="770" y="190" width="120" height="80" as="geometry" />
        </mxCell>
        <mxCell id="SQK4IzMh1T8t9lWKPkdR-34" value="stores basic details in DB , user can update selfie anytime&lt;div&gt;&lt;br&gt;&lt;/div&gt;" style="shape=hexagon;perimeter=hexagonPerimeter2;whiteSpace=wrap;html=1;fixedSize=1;" vertex="1" parent="1">
          <mxGeometry x="530" y="40" width="120" height="80" as="geometry" />
        </mxCell>
        <mxCell id="SQK4IzMh1T8t9lWKPkdR-35" value="&lt;div&gt;only when selfie is validated one can process RBI kyc process&lt;/div&gt;" style="shape=hexagon;perimeter=hexagonPerimeter2;whiteSpace=wrap;html=1;fixedSize=1;" vertex="1" parent="1">
          <mxGeometry x="660" y="40" width="120" height="80" as="geometry" />
        </mxCell>
        <mxCell id="SQK4IzMh1T8t9lWKPkdR-36" value="liveliness verfied and fetched with keynaara API&#39;s" style="ellipse;whiteSpace=wrap;html=1;" vertex="1" parent="1">
          <mxGeometry x="120" y="450" width="120" height="80" as="geometry" />
        </mxCell>
        <mxCell id="SQK4IzMh1T8t9lWKPkdR-37" style="edgeStyle=orthogonalEdgeStyle;rounded=0;orthogonalLoop=1;jettySize=auto;html=1;exitX=1;exitY=0.5;exitDx=0;exitDy=0;entryX=0;entryY=1;entryDx=0;entryDy=-15;entryPerimeter=0;" edge="1" parent="1" source="SQK4IzMh1T8t9lWKPkdR-30" target="SQK4IzMh1T8t9lWKPkdR-29">
          <mxGeometry relative="1" as="geometry" />
        </mxCell>
        <mxCell id="SQK4IzMh1T8t9lWKPkdR-38" value="&lt;div&gt;apply for RBI KYC job process&lt;/div&gt;" style="shape=hexagon;perimeter=hexagonPerimeter2;whiteSpace=wrap;html=1;fixedSize=1;" vertex="1" parent="1">
          <mxGeometry x="950" y="240" width="120" height="80" as="geometry" />
        </mxCell>
        <mxCell id="SQK4IzMh1T8t9lWKPkdR-39" value="" style="shape=flexArrow;endArrow=classic;startArrow=classic;html=1;rounded=0;" edge="1" parent="1">
          <mxGeometry width="100" height="100" relative="1" as="geometry">
            <mxPoint x="1580" y="140" as="sourcePoint" />
            <mxPoint x="1740" y="140" as="targetPoint" />
            <Array as="points">
              <mxPoint x="1820" y="190" />
            </Array>
          </mxGeometry>
        </mxCell>
        <mxCell id="SQK4IzMh1T8t9lWKPkdR-41" value="Text" style="edgeLabel;html=1;align=center;verticalAlign=middle;resizable=0;points=[];" vertex="1" connectable="0" parent="SQK4IzMh1T8t9lWKPkdR-39">
          <mxGeometry x="-0.933" y="-5" relative="1" as="geometry">
            <mxPoint as="offset" />
          </mxGeometry>
        </mxCell>
        <mxCell id="SQK4IzMh1T8t9lWKPkdR-42" value="&lt;span style=&quot;color: rgb(0, 0, 0); font-family: Helvetica; font-size: 11px; font-style: normal; font-variant-ligatures: normal; font-variant-caps: normal; font-weight: 400; letter-spacing: normal; orphans: 2; text-align: center; text-indent: 0px; text-transform: none; widows: 2; word-spacing: 0px; -webkit-text-stroke-width: 0px; white-space: nowrap; background-color: rgb(255, 255, 255); text-decoration-thickness: initial; text-decoration-style: initial; text-decoration-color: initial; display: inline !important; float: none;&quot;&gt;Grpc protocol to actively fetch job status from RBI and triggers changes in Keynaara Db&lt;/span&gt;" style="text;whiteSpace=wrap;html=1;" vertex="1" parent="1">
          <mxGeometry x="660" y="160" width="460" height="40" as="geometry" />
        </mxCell>
        <mxCell id="SQK4IzMh1T8t9lWKPkdR-43" value="trigger when changes done approved or not approved" style="ellipse;whiteSpace=wrap;html=1;aspect=fixed;" vertex="1" parent="1">
          <mxGeometry x="880" y="60" width="80" height="80" as="geometry" />
        </mxCell>
        <mxCell id="SQK4IzMh1T8t9lWKPkdR-47" style="edgeStyle=orthogonalEdgeStyle;rounded=0;orthogonalLoop=1;jettySize=auto;html=1;entryX=1;entryY=0;entryDx=0;entryDy=52.5;entryPerimeter=0;" edge="1" parent="1" source="SQK4IzMh1T8t9lWKPkdR-43" target="SQK4IzMh1T8t9lWKPkdR-2">
          <mxGeometry relative="1" as="geometry" />
        </mxCell>
        <mxCell id="SQK4IzMh1T8t9lWKPkdR-48" style="edgeStyle=orthogonalEdgeStyle;rounded=0;orthogonalLoop=1;jettySize=auto;html=1;entryX=1.023;entryY=0.904;entryDx=0;entryDy=0;entryPerimeter=0;" edge="1" parent="1" source="SQK4IzMh1T8t9lWKPkdR-43" target="SQK4IzMh1T8t9lWKPkdR-1">
          <mxGeometry relative="1" as="geometry" />
        </mxCell>
        <mxCell id="SQK4IzMh1T8t9lWKPkdR-49" value="tells user a notfication on KYC status" style="rounded=1;whiteSpace=wrap;html=1;" vertex="1" parent="1">
          <mxGeometry x="290" y="40" width="120" height="60" as="geometry" />
        </mxCell>
        <mxCell id="SQK4IzMh1T8t9lWKPkdR-51" value="&lt;div&gt;after database changes in keynaara user can access and proceed to next process&lt;/div&gt;" style="shape=hexagon;perimeter=hexagonPerimeter2;whiteSpace=wrap;html=1;fixedSize=1;" vertex="1" parent="1">
          <mxGeometry x="40" y="170" width="120" height="80" as="geometry" />
        </mxCell>
      </root>
    </mxGraphModel>
  </diagram>
</mxfile>
